<svg width="14" height="14" viewBox="0 0 14 14" fill="none" xmlns="http://www.w3.org/2000/svg">
<g id="car 1" clip-path="url(#clip0_1960_92)">
<path id="Vector" d="M12.9448 5.39543L11.9629 2.12256C11.739 1.37616 11.0653 0.875 10.2864 0.875H3.71365C2.93478 0.875 2.26101 1.37616 2.03714 2.12256L1.05527 5.39543C0.435284 5.66486 3.05176e-05 6.28185 3.05176e-05 7V10.5C3.05176e-05 10.9832 0.391815 11.375 0.87503 11.375H0.875084L0.87503 12.2499C0.87503 12.7332 1.26676 13.125 1.75003 13.125H2.62508C3.1083 13.125 3.50008 12.7332 3.50008 12.25L3.49971 11.375H10.5L10.5 12.2499C10.5 12.7332 10.8917 13.125 11.375 13.125H12.25C12.7333 13.125 13.125 12.7332 13.125 12.25V11.3751L13.1247 11.375H13.125C13.6082 11.375 14 10.9832 14 10.5V7C14 6.28185 13.5648 5.66485 12.9448 5.39542L12.9448 5.39543ZM3.71363 2.625H10.2864L11.0739 5.25H2.9261L3.71362 2.625H3.71363ZM3.5 9.1875C3.01673 9.1875 2.625 8.79572 2.625 8.3125C2.625 7.82923 3.01673 7.4375 3.5 7.4375C3.98327 7.4375 4.375 7.82923 4.375 8.3125C4.375 8.79572 3.98327 9.1875 3.5 9.1875ZM10.5 9.1875C10.0167 9.1875 9.625 8.79572 9.625 8.3125C9.625 7.82923 10.0167 7.4375 10.5 7.4375C10.9833 7.4375 11.375 7.82923 11.375 8.3125C11.375 8.79572 10.9833 9.1875 10.5 9.1875Z" fill="white"/>
</g>
<defs>
<clipPath id="clip0_1960_92">
<rect width="14" height="14" fill="white"/>
</clipPath>
</defs>
</svg>
