<svg width="14" height="14" viewBox="0 0 14 14" fill="none" xmlns="http://www.w3.org/2000/svg">
<g id="musical-note 1" clip-path="url(#clip0_1960_455)">
<path id="Vector" d="M11.0634 8.90357C11.4985 8.1755 11.7872 7.25465 11.8432 6.3435C11.8787 5.75867 11.7484 5.14477 11.4662 4.56749C11.0236 3.66064 10.2632 3.15121 9.52867 2.65901C8.98047 2.29175 8.46242 1.94495 8.09624 1.44952L8.03054 1.36121C7.81406 1.07041 7.56957 0.740843 7.5308 0.464049C7.49203 0.184024 7.23785 -0.0152241 6.95998 0.000931221C6.6778 0.0203176 6.45917 0.254031 6.45917 0.537287V10.1335C6.0079 9.85996 5.45216 9.69195 4.84364 9.69195C3.35951 9.69195 2.15109 10.658 2.15109 11.846C2.15109 13.0339 3.35951 14 4.84364 14C6.32777 14 7.53619 13.0339 7.53619 11.846V5.56912C8.34503 5.87822 9.66868 6.66552 10.0327 8.50399C9.96486 8.60416 9.90024 8.71186 9.82485 8.79802C9.62776 9.02096 9.6493 9.3613 9.87332 9.55732C10.0952 9.75549 10.4355 9.7318 10.6326 9.50885C10.7769 9.34515 10.9051 9.15344 11.0279 8.95311C11.0408 8.93803 11.0527 8.92188 11.0634 8.90357Z" fill="white"/>
</g>
<defs>
<clipPath id="clip0_1960_455">
<rect width="14" height="14" fill="white"/>
</clipPath>
</defs>
</svg>
